<svg xmlns="http://www.w3.org/2000/svg" viewBox="0 0 572 120"><defs><style>.cls-1{fill:#0abf61;}.cls-2{fill:#fff;}</style></defs><title>logo_2 副本</title><g id="图层_1" data-name="图层 1"><rect class="cls-1" x="75.05" y="12" width="14.4" height="14.4"/><rect class="cls-1" x="89.45" y="26.4" width="12.8" height="12.8"/><rect class="cls-1" x="99.68" y="17.15" width="5.94" height="5.94"/><rect class="cls-1" x="102.25" y="39.2" width="9.6" height="9.6"/><path class="cls-1" d="M70,91.86a32,32,0,0,1-5.85-63.77c1-.09,2-.12,2.93-.12V12a48,48,0,1,0,41.57,72L94.78,76A31.94,31.94,0,0,1,70,91.86Z"/><rect class="cls-1" x="197.74" y="33.33" width="9.2" height="9.2"/><rect class="cls-2" x="421.2" y="49.11" width="5.2" height="37.57"/><rect class="cls-2" x="421.2" y="37.94" width="5.2" height="5.2"/><polygon class="cls-2" points="382.59 34.47 377.39 34.47 377.39 81.48 377.39 86.68 382.59 86.68 411.39 86.68 411.39 81.48 382.59 81.48 382.59 34.47"/><path class="cls-2" d="M452.88,49.11A14.57,14.57,0,0,0,438.3,63.68v23h5.2v-23a9.38,9.38,0,0,1,18.75,0v23h5.2v-23A14.57,14.57,0,0,0,452.88,49.11Z"/><path class="cls-2" d="M502.5,72.1a9.37,9.37,0,1,1-18.74,0v-23h-5.2v23a14.57,14.57,0,1,0,29.14,0v-23h-5.2Z"/><polygon class="cls-2" points="534.85 67.5 534.83 67.47 534.85 67.44 548.13 49.12 541.73 49.12 531.65 63 531.63 63.03 521.53 49.18 515.13 49.18 528.43 67.47 514.45 86.68 520.89 86.68 531.63 71.87 531.65 71.9 542.41 86.74 548.85 86.74 534.85 67.5"/><path class="cls-2" d="M169,42.68a17.85,17.85,0,0,1,4.09.48,17.26,17.26,0,0,1,9.19,5.76l.39.46,7.07-5.94-.39-.47a26.64,26.64,0,1,0,0,34.18l.39-.46-7-5.9-.39.46A17.38,17.38,0,1,1,169,42.68Z"/><path class="cls-2" d="M268.49,56.68a10.28,10.28,0,0,1,8,3.78l.38.47,7-5.91-.38-.45A19.49,19.49,0,0,0,273.09,48a19.82,19.82,0,0,0-4.6-.55,19.6,19.6,0,0,0-4.57,38.66,20,20,0,0,0,4.6.55,19.53,19.53,0,0,0,14.92-7l.39-.46-7-5.9-.39.46a10.39,10.39,0,1,1-7.93-17.11Z"/><rect class="cls-2" x="197.74" y="47.9" width="9.2" height="38.77"/><rect class="cls-2" x="291.27" y="33.26" width="9.2" height="53.41"/><path class="cls-2" d="M347.52,62.89a20.12,20.12,0,0,0-3.6-8,18.8,18.8,0,0,0-9.11-6.56,17.85,17.85,0,0,0-5.57-.9c-10.33,0-18.73,8.8-18.73,19.61,0,0,0,.6,0,.6a19.55,19.55,0,0,0,34.64,11.9l.38-.46L338.5,73.2l-.38.47a10.56,10.56,0,0,1-2.08,2A10.43,10.43,0,0,1,321.56,73a9.73,9.73,0,0,1-1.24-2.5H347.7a22.43,22.43,0,0,0,.27-3.4A19.78,19.78,0,0,0,347.52,62.89Zm-26.92,0a9.64,9.64,0,0,1,18,0Z"/><path class="cls-2" d="M229,55.32v-7h-9.21V87.08H229V68.43c0-6.55,4.9-10.8,12.82-10.08V47.9A14.1,14.1,0,0,0,229,55.32Z"/></g></svg>