<svg xmlns="http://www.w3.org/2000/svg" viewBox="0 0 476.35 120"><defs><style>.cls-1{fill:none;}.cls-2{fill:#fff;}.cls-3{fill:#0abf61;}</style></defs><title>logo_new_dark</title><g id="图层_1" data-name="图层 1"><rect class="cls-1" x="0.18" y="0.29" width="476" height="120.01"/><rect class="cls-2" x="329.69" y="54.37" width="5.2" height="37.57"/><rect class="cls-2" x="329.69" y="43.39" width="5.2" height="5.2"/><polygon class="cls-2" points="291.09 38.52 285.89 38.52 285.89 86.74 285.89 91.94 291.09 91.94 319.88 91.94 319.88 86.74 291.09 86.74 291.09 38.52"/><path class="cls-2" d="M359.28,54.37A14.57,14.57,0,0,0,344.7,68.94v23h5.2v-23a9.38,9.38,0,0,1,18.75,0v23h5.2v-23A14.57,14.57,0,0,0,359.28,54.37Z"/><path class="cls-2" d="M407.61,77.36a9.38,9.38,0,1,1-18.75,0v-23h-5.2v23a14.58,14.58,0,1,0,29.15,0v-23h-5.2Z"/><polygon class="cls-2" points="443.02 72.76 442.99 72.73 443.02 72.7 456.3 54.38 449.9 54.38 439.82 68.26 439.8 68.29 429.7 54.44 423.3 54.44 436.59 72.73 422.62 91.94 429.06 91.94 439.79 77.13 439.82 77.16 450.58 92 457.02 92 443.02 72.76"/><path class="cls-2" d="M171,61.94a10.25,10.25,0,0,1,8,3.78l.39.47,7-5.91-.38-.45a19.49,19.49,0,0,0-10.42-6.55,19.88,19.88,0,0,0-4.6-.55,19.6,19.6,0,0,0-4.57,38.66,19.88,19.88,0,0,0,4.6.55,19.53,19.53,0,0,0,14.92-7l.39-.46-7-5.9-.39.46A10.39,10.39,0,1,1,171,61.94Z"/><rect class="cls-2" x="103.5" y="38.59" width="9.2" height="9.2"/><rect class="cls-2" x="103.5" y="53.57" width="9.2" height="38.77"/><rect class="cls-2" x="196.2" y="38.52" width="9.2" height="53.41"/><path class="cls-2" d="M252.38,75.74a21.2,21.2,0,0,0,.3-3.41h0c0-.61,0-1.22-.09-1.81l-.06-.57c-.05-.42-.11-.82-.18-1.23l-.12-.62c-.09-.4-.19-.78-.29-1.17l-.15-.56c-.17-.53-.35-1.05-.55-1.55-.08-.21-.18-.41-.27-.61s-.27-.62-.42-.91-.26-.51-.4-.76l-.39-.67c-.17-.27-.33-.54-.51-.8l-.33-.47a20.27,20.27,0,0,0-2.48-2.83l-.15-.15c-.33-.29-.66-.58-1-.85l-.12-.09a18,18,0,0,0-11.22-4c-10.33,0-18.74,8.8-18.74,19.6h0a19.59,19.59,0,0,0,35,12.07l-7.05-5.92A10.39,10.39,0,0,1,225,75.74h27.39ZM234.3,62a9.86,9.86,0,0,1,9,6.19h-18A9.89,9.89,0,0,1,234.3,62Z"/><path class="cls-2" d="M134.72,60.58v-7h-9.21V92.34h9.21V73.69c0-6.55,4.9-10.8,12.82-10.09V53.16A14.1,14.1,0,0,0,134.72,60.58Z"/><rect class="cls-3" x="64.22" y="21.53" width="11.54" height="11.54"/><rect class="cls-3" x="75.76" y="33.07" width="10.26" height="10.26"/><rect class="cls-3" x="83.95" y="25.66" width="4.76" height="4.76"/><rect class="cls-3" x="86.01" y="43.33" width="7.69" height="7.69"/><path class="cls-3" d="M80,72.89a25.65,25.65,0,1,1-24.5-38.46c.79-.07,1.57-.1,2.35-.1V21.53A38.46,38.46,0,1,0,89.89,81.22Z"/></g></svg>